<mxfile host="app.diagrams.net" modified="2020-11-02T09:15:22.809Z" agent="5.0 (Macintosh; Intel Mac OS X 10_15_7) AppleWebKit/605.1.15 (KHTML, like Gecko) Version/14.0 Safari/605.1.15" etag="3xWgdXrYny6Po5_hLsqP" version="13.8.6" type="github">
  <diagram id="SUQyNkPw38X5v7QX5pR-" name="Page-1">
    <mxGraphModel dx="1425" dy="813" grid="1" gridSize="10" guides="1" tooltips="1" connect="1" arrows="1" fold="1" page="1" pageScale="1" pageWidth="827" pageHeight="1169" math="0" shadow="0">
      <root>
        <mxCell id="0" />
        <mxCell id="1" parent="0" />
        <mxCell id="hwhnWIX9Nv_DtkqQnSJ9-1" value="Import label PFD từ Royal Mail &amp;amp; Singapore post" style="swimlane;html=1;childLayout=stackLayout;resizeParent=1;resizeParentMax=0;startSize=20;" parent="1" vertex="1">
          <mxGeometry x="90" y="50" width="920" height="740" as="geometry" />
        </mxCell>
        <mxCell id="hwhnWIX9Nv_DtkqQnSJ9-2" value="Nhận file label PDF từ đối tác" style="swimlane;html=1;startSize=20;" parent="hwhnWIX9Nv_DtkqQnSJ9-1" vertex="1">
          <mxGeometry y="20" width="260" height="720" as="geometry" />
        </mxCell>
        <mxCell id="hwhnWIX9Nv_DtkqQnSJ9-6" value="" style="ellipse;html=1;shape=startState;fillColor=#000000;strokeColor=#ff0000;" parent="hwhnWIX9Nv_DtkqQnSJ9-2" vertex="1">
          <mxGeometry x="95" y="44" width="30" height="30" as="geometry" />
        </mxCell>
        <mxCell id="hwhnWIX9Nv_DtkqQnSJ9-7" value="" style="edgeStyle=orthogonalEdgeStyle;html=1;verticalAlign=bottom;endArrow=open;endSize=8;strokeColor=#ff0000;entryX=0.5;entryY=0;entryDx=0;entryDy=0;" parent="hwhnWIX9Nv_DtkqQnSJ9-2" target="hwhnWIX9Nv_DtkqQnSJ9-8" edge="1">
          <mxGeometry relative="1" as="geometry">
            <mxPoint x="65" y="130" as="targetPoint" />
            <mxPoint x="110" y="70" as="sourcePoint" />
          </mxGeometry>
        </mxCell>
        <mxCell id="hwhnWIX9Nv_DtkqQnSJ9-8" value="1. Nhận file label pdf qua email" style="rounded=1;whiteSpace=wrap;html=1;arcSize=40;fontColor=#000000;fillColor=#ffffc0;strokeColor=#ff0000;" parent="hwhnWIX9Nv_DtkqQnSJ9-2" vertex="1">
          <mxGeometry x="50" y="130" width="120" height="40" as="geometry" />
        </mxCell>
        <mxCell id="hwhnWIX9Nv_DtkqQnSJ9-3" value="Import file PDF từ BE" style="swimlane;html=1;startSize=20;" parent="hwhnWIX9Nv_DtkqQnSJ9-1" vertex="1">
          <mxGeometry x="260" y="20" width="290" height="720" as="geometry" />
        </mxCell>
        <mxCell id="hwhnWIX9Nv_DtkqQnSJ9-10" value="&amp;nbsp;2. Import label file lên hệ thống" style="rounded=1;whiteSpace=wrap;html=1;arcSize=40;fontColor=#000000;fillColor=#ffffc0;strokeColor=#ff0000;" parent="hwhnWIX9Nv_DtkqQnSJ9-3" vertex="1">
          <mxGeometry x="90" y="130" width="120" height="40" as="geometry" />
        </mxCell>
        <mxCell id="hwhnWIX9Nv_DtkqQnSJ9-12" value="3. Tạo job để xử lý file label" style="rounded=1;whiteSpace=wrap;html=1;arcSize=40;fontColor=#000000;fillColor=#ffffc0;strokeColor=#ff0000;" parent="hwhnWIX9Nv_DtkqQnSJ9-3" vertex="1">
          <mxGeometry x="90" y="230" width="120" height="40" as="geometry" />
        </mxCell>
        <mxCell id="hwhnWIX9Nv_DtkqQnSJ9-11" value="" style="edgeStyle=orthogonalEdgeStyle;html=1;verticalAlign=bottom;endArrow=open;endSize=8;strokeColor=#ff0000;entryX=0.5;entryY=0;entryDx=0;entryDy=0;exitX=0.5;exitY=1;exitDx=0;exitDy=0;" parent="hwhnWIX9Nv_DtkqQnSJ9-3" source="hwhnWIX9Nv_DtkqQnSJ9-10" target="hwhnWIX9Nv_DtkqQnSJ9-12" edge="1">
          <mxGeometry relative="1" as="geometry">
            <mxPoint x="95" y="230" as="targetPoint" />
            <Array as="points">
              <mxPoint x="150" y="220" />
              <mxPoint x="150" y="220" />
            </Array>
          </mxGeometry>
        </mxCell>
        <UserObject label="Chạy worker" link="https://alloverprint.sgp1.digitaloceanspaces.com/uk-labels/749771-LG324968905GB.jpg" id="hwhnWIX9Nv_DtkqQnSJ9-4">
          <mxCell style="swimlane;html=1;startSize=20;" parent="hwhnWIX9Nv_DtkqQnSJ9-1" vertex="1">
            <mxGeometry x="550" y="20" width="370" height="720" as="geometry" />
          </mxCell>
        </UserObject>
        <mxCell id="hwhnWIX9Nv_DtkqQnSJ9-14" value="4. Worker tìm xem có job đang chờ xử lý" style="rhombus;whiteSpace=wrap;html=1;fillColor=#ffffc0;strokeColor=#ff0000;" parent="hwhnWIX9Nv_DtkqQnSJ9-4" vertex="1">
          <mxGeometry x="49" y="215" width="160" height="70" as="geometry" />
        </mxCell>
        <mxCell id="hwhnWIX9Nv_DtkqQnSJ9-15" value="Không" style="edgeStyle=orthogonalEdgeStyle;html=1;align=left;verticalAlign=bottom;endArrow=open;endSize=8;strokeColor=#ff0000;exitX=1;exitY=0.5;exitDx=0;exitDy=0;" parent="hwhnWIX9Nv_DtkqQnSJ9-4" edge="1">
          <mxGeometry x="-1" relative="1" as="geometry">
            <mxPoint x="129" y="220" as="targetPoint" />
            <mxPoint x="204" y="250" as="sourcePoint" />
            <Array as="points">
              <mxPoint x="244" y="250" />
              <mxPoint x="244" y="180" />
              <mxPoint x="129" y="180" />
            </Array>
          </mxGeometry>
        </mxCell>
        <mxCell id="hwhnWIX9Nv_DtkqQnSJ9-16" value="Có" style="edgeStyle=orthogonalEdgeStyle;html=1;align=left;verticalAlign=top;endArrow=open;endSize=8;strokeColor=#ff0000;" parent="hwhnWIX9Nv_DtkqQnSJ9-4" edge="1">
          <mxGeometry x="-1" relative="1" as="geometry">
            <mxPoint x="129" y="330" as="targetPoint" />
            <mxPoint x="129" y="280" as="sourcePoint" />
          </mxGeometry>
        </mxCell>
        <mxCell id="hwhnWIX9Nv_DtkqQnSJ9-17" value="5. Lấy ra job đang chờ" style="rounded=1;whiteSpace=wrap;html=1;arcSize=40;fontColor=#000000;fillColor=#ffffc0;strokeColor=#ff0000;" parent="hwhnWIX9Nv_DtkqQnSJ9-4" vertex="1">
          <mxGeometry x="69" y="330" width="120" height="40" as="geometry" />
        </mxCell>
        <mxCell id="hwhnWIX9Nv_DtkqQnSJ9-18" value="" style="edgeStyle=orthogonalEdgeStyle;html=1;verticalAlign=bottom;endArrow=open;endSize=8;strokeColor=#ff0000;" parent="hwhnWIX9Nv_DtkqQnSJ9-4" edge="1">
          <mxGeometry relative="1" as="geometry">
            <mxPoint x="128" y="430" as="targetPoint" />
            <mxPoint x="128" y="370" as="sourcePoint" />
          </mxGeometry>
        </mxCell>
        <mxCell id="hwhnWIX9Nv_DtkqQnSJ9-19" value="6. Scan data từ file label của job" style="rounded=1;whiteSpace=wrap;html=1;arcSize=40;fontColor=#000000;fillColor=#ffffc0;strokeColor=#ff0000;" parent="hwhnWIX9Nv_DtkqQnSJ9-4" vertex="1">
          <mxGeometry x="79" y="430" width="120" height="40" as="geometry" />
        </mxCell>
        <mxCell id="hwhnWIX9Nv_DtkqQnSJ9-20" value="" style="edgeStyle=orthogonalEdgeStyle;html=1;verticalAlign=bottom;endArrow=open;endSize=8;strokeColor=#ff0000;" parent="hwhnWIX9Nv_DtkqQnSJ9-4" source="hwhnWIX9Nv_DtkqQnSJ9-19" edge="1">
          <mxGeometry relative="1" as="geometry">
            <mxPoint x="139" y="530" as="targetPoint" />
          </mxGeometry>
        </mxCell>
        <mxCell id="hwhnWIX9Nv_DtkqQnSJ9-27" value="7. Thành công" style="rhombus;whiteSpace=wrap;html=1;fillColor=#ffffc0;strokeColor=#ff0000;" parent="hwhnWIX9Nv_DtkqQnSJ9-4" vertex="1">
          <mxGeometry x="89" y="530" width="100" height="40" as="geometry" />
        </mxCell>
        <mxCell id="hwhnWIX9Nv_DtkqQnSJ9-31" value="8. Lưu data vào &amp;nbsp;DB" style="rounded=1;whiteSpace=wrap;html=1;arcSize=40;fontColor=#000000;fillColor=#ffffc0;strokeColor=#ff0000;" parent="hwhnWIX9Nv_DtkqQnSJ9-4" vertex="1">
          <mxGeometry x="79" y="650" width="120" height="40" as="geometry" />
        </mxCell>
        <mxCell id="hwhnWIX9Nv_DtkqQnSJ9-32" value="" style="edgeStyle=orthogonalEdgeStyle;html=1;verticalAlign=bottom;endArrow=open;endSize=8;strokeColor=#ff0000;entryX=0;entryY=0.5;entryDx=0;entryDy=0;exitX=0;exitY=0.5;exitDx=0;exitDy=0;" parent="hwhnWIX9Nv_DtkqQnSJ9-4" source="hwhnWIX9Nv_DtkqQnSJ9-31" target="hwhnWIX9Nv_DtkqQnSJ9-14" edge="1">
          <mxGeometry relative="1" as="geometry">
            <mxPoint x="135" y="740" as="targetPoint" />
            <Array as="points">
              <mxPoint x="20" y="670" />
              <mxPoint x="20" y="250" />
            </Array>
          </mxGeometry>
        </mxCell>
        <mxCell id="hwhnWIX9Nv_DtkqQnSJ9-47" value="yes" style="edgeStyle=orthogonalEdgeStyle;html=1;align=left;verticalAlign=top;endArrow=open;endSize=8;strokeColor=#ff0000;exitX=0.5;exitY=1;exitDx=0;exitDy=0;" parent="hwhnWIX9Nv_DtkqQnSJ9-4" source="hwhnWIX9Nv_DtkqQnSJ9-27" target="hwhnWIX9Nv_DtkqQnSJ9-31" edge="1">
          <mxGeometry x="-1" relative="1" as="geometry">
            <mxPoint x="-76" y="520" as="targetPoint" />
            <mxPoint x="-36" y="500" as="sourcePoint" />
          </mxGeometry>
        </mxCell>
        <mxCell id="hwhnWIX9Nv_DtkqQnSJ9-34" value="9. Đánh dấu job bị lỗi" style="rounded=1;whiteSpace=wrap;html=1;arcSize=40;fontColor=#000000;fillColor=#ffffc0;strokeColor=#ff0000;" parent="hwhnWIX9Nv_DtkqQnSJ9-4" vertex="1">
          <mxGeometry x="230" y="530" width="120" height="40" as="geometry" />
        </mxCell>
        <mxCell id="hwhnWIX9Nv_DtkqQnSJ9-35" value="" style="edgeStyle=orthogonalEdgeStyle;html=1;verticalAlign=bottom;endArrow=open;endSize=8;strokeColor=#ff0000;entryX=1;entryY=0.5;entryDx=0;entryDy=0;exitX=0.5;exitY=0;exitDx=0;exitDy=0;" parent="hwhnWIX9Nv_DtkqQnSJ9-4" source="hwhnWIX9Nv_DtkqQnSJ9-34" target="hwhnWIX9Nv_DtkqQnSJ9-17" edge="1">
          <mxGeometry relative="1" as="geometry">
            <mxPoint x="239" y="630" as="targetPoint" />
            <Array as="points">
              <mxPoint x="290" y="350" />
            </Array>
          </mxGeometry>
        </mxCell>
        <mxCell id="hwhnWIX9Nv_DtkqQnSJ9-46" value="no" style="edgeStyle=orthogonalEdgeStyle;html=1;align=left;verticalAlign=bottom;endArrow=open;endSize=8;strokeColor=#ff0000;exitX=1;exitY=0.5;exitDx=0;exitDy=0;entryX=0;entryY=0.5;entryDx=0;entryDy=0;" parent="hwhnWIX9Nv_DtkqQnSJ9-4" source="hwhnWIX9Nv_DtkqQnSJ9-27" target="hwhnWIX9Nv_DtkqQnSJ9-34" edge="1">
          <mxGeometry x="-1" relative="1" as="geometry">
            <mxPoint x="-31" y="440" as="targetPoint" />
          </mxGeometry>
        </mxCell>
        <mxCell id="hwhnWIX9Nv_DtkqQnSJ9-9" value="" style="edgeStyle=orthogonalEdgeStyle;html=1;verticalAlign=bottom;endArrow=open;endSize=8;strokeColor=#ff0000;" parent="hwhnWIX9Nv_DtkqQnSJ9-1" source="hwhnWIX9Nv_DtkqQnSJ9-8" target="hwhnWIX9Nv_DtkqQnSJ9-10" edge="1">
          <mxGeometry relative="1" as="geometry">
            <mxPoint x="80" y="250" as="targetPoint" />
          </mxGeometry>
        </mxCell>
        <mxCell id="hwhnWIX9Nv_DtkqQnSJ9-37" value="" style="edgeStyle=orthogonalEdgeStyle;html=1;verticalAlign=bottom;endArrow=open;endSize=8;strokeColor=#ff0000;entryX=0;entryY=0.5;entryDx=0;entryDy=0;exitX=1;exitY=0.5;exitDx=0;exitDy=0;" parent="hwhnWIX9Nv_DtkqQnSJ9-1" source="hwhnWIX9Nv_DtkqQnSJ9-12" target="hwhnWIX9Nv_DtkqQnSJ9-14" edge="1">
          <mxGeometry relative="1" as="geometry">
            <mxPoint x="285" y="250" as="targetPoint" />
          </mxGeometry>
        </mxCell>
      </root>
    </mxGraphModel>
  </diagram>
</mxfile>
